<?xml version="1.0" encoding="UTF-8" standalone="no"?>
<svg
   width="128"
   height="128"
   viewBox="0 0 128 128"
   fill="none"
   version="1.1"
   id="svg13"
   sodipodi:docname="Untitled (1).svg"
   inkscape:version="1.2.2 (b0a8486541, 2022-12-01)"
   xmlns:inkscape="http://www.inkscape.org/namespaces/inkscape"
   xmlns:sodipodi="http://sodipodi.sourceforge.net/DTD/sodipodi-0.dtd"
   xmlns="http://www.w3.org/2000/svg"
   xmlns:svg="http://www.w3.org/2000/svg">
  <sodipodi:namedview
     id="namedview15"
     pagecolor="#ffffff"
     bordercolor="#666666"
     borderopacity="1.0"
     inkscape:showpageshadow="2"
     inkscape:pageopacity="0.0"
     inkscape:pagecheckerboard="0"
     inkscape:deskcolor="#d1d1d1"
     showgrid="false"
     inkscape:zoom="2.8794331"
     inkscape:cx="-0.34729058"
     inkscape:cy="67.721663"
     inkscape:window-width="1920"
     inkscape:window-height="1044"
     inkscape:window-x="0"
     inkscape:window-y="36"
     inkscape:window-maximized="1"
     inkscape:current-layer="svg13" />
  <g
     id="g416"
     transform="scale(6.4000058)">
    <path
       fill-rule="evenodd"
       clip-rule="evenodd"
       d="M 7.81458,0.103263 C 7.92353,0.104422 8.02767,0.0905435 8.12699,0.0616284 9.43223,-0.0238764 10.7374,-0.0204082 12.0425,0.072037 c 1.1833,0.092202 2.3288,0.348949 3.4365,0.770238 1.8415,0.758125 3.1015,2.073085 3.7801,3.944865 0.3881,1.12694 0.6172,2.28578 0.6873,3.47648 0.097,1.49522 0.0623,2.98708 -0.1041,4.47568 -0.1246,1.0463 -0.3953,2.0525 -0.8123,3.0185 -0.7733,1.675 -2.0263,2.8304 -3.7593,3.4661 -1.4042,0.4745 -2.8483,0.7243 -4.332,0.7494 C 9.26967,20.0601 7.61739,19.9352 5.98179,19.5986 2.97127,18.928 1.11417,17.0926 0.410525,14.0924 0.111921,12.7419 -0.0234553,11.3749 0.00439481,9.99145 -0.0289308,8.52036 0.127273,7.07008 0.473006,5.64065 1.21065,2.83553 2.99136,1.09728 5.81518,0.42593 6.47317,0.265065 7.13964,0.157508 7.81458,0.103263 Z"
       fill="url(#paint0_linear_0_1)"
       id="path2"
       style="fill:url(#paint0_linear_0_1)" />
    <path
       d="m 10.6192,2.00077 c -0.0416,0.00256 -0.0814,0.01815 -0.1136,0.04456 -0.0243,0.02093 -0.149,0.18331 -0.2772,0.36094 L 9.99571,2.72894 9.92633,2.73313 C 9.75887,2.74269 9.78877,2.76602 9.52143,2.41794 9.38835,2.24449 9.26037,2.0878 9.23734,2.06955 9.20645,2.04757 9.17131,2.03229 9.13417,2.0247 9.08214,2.01573 9.06419,2.01872 9.01156,2.04623 8.97739,2.06401 8.94757,2.08913 8.92425,2.11979 8.91019,2.14282 8.82646,2.32075 8.73794,2.51542 8.56031,2.90687 8.58364,2.87816 8.41857,2.90657 L 8.34979,2.91853 8.04985,2.65717 C 7.88478,2.51363 7.72658,2.38385 7.69788,2.36889 7.60009,2.31806 7.45864,2.3662 7.41498,2.46489 7.40422,2.48971 7.35577,2.6799 7.30733,2.88773 7.25859,3.09556 7.21254,3.27349 7.20416,3.28366 7.19609,3.29353 7.14794,3.31954 7.09711,3.34107 L 7.0044,3.38055 6.63838,3.16913 C 6.29089,2.96877 6.26787,2.9577 6.19789,2.96069 6.15494,2.95962 6.11275,2.97219 6.07738,2.99658 5.99574,3.05429 5.98378,3.11171 5.97152,3.51063 5.96524,3.71009 5.95896,3.8949 5.95746,3.92151 5.95507,3.96338 5.94341,3.97683 5.86267,4.02977 L 5.77026,4.09047 5.38271,3.95949 C 4.9494,3.81296 4.89587,3.80429 4.81961,3.86978 4.79449,3.89161 4.7619,3.93258 4.74694,3.96128 4.71555,4.02229 4.71644,4.03425 4.79838,4.52049 4.82948,4.7035 4.85311,4.8602 4.85101,4.86857 4.84892,4.87665 4.81453,4.91612 4.77446,4.95589 L 4.70179,5.02856 4.30466,4.97713 C 4.08636,4.94902 3.88152,4.92928 3.85012,4.93287 3.79584,4.94068 3.74662,4.969 3.71258,5.012 3.67854,5.05499 3.66227,5.1094 3.66711,5.16403 3.6704,5.19542 3.73649,5.3901 3.81364,5.59644 L 3.95359,5.97143 3.89977,6.05875 C 3.86986,6.1066 3.83936,6.14936 3.83188,6.15325 3.82441,6.15714 3.66651,6.1694 3.48111,6.18106 2.98888,6.21186 2.97722,6.21366 2.92489,6.25821 2.90037,6.27915 2.86808,6.32012 2.85253,6.34942 2.80558,6.43913 2.82621,6.48907 3.06783,6.87723 L 3.28374,7.22442 3.24546,7.32848 C 3.21197,7.41969 3.2015,7.43434 3.16113,7.446 3.13602,7.45348 2.95719,7.50163 2.76431,7.55306 2.37855,7.65593 2.32562,7.68045 2.28794,7.77315 2.27217,7.81316 2.26955,7.85715 2.28046,7.89875 2.29362,7.96753 2.30947,7.98727 2.58369,8.28003 L 2.87286,8.58864 2.85551,8.68792 C 2.84565,8.74234 2.83159,8.79498 2.82381,8.80514 2.81604,8.81531 2.65306,8.90084 2.46168,8.99533 2.27029,9.08983 2.09595,9.18044 2.07442,9.19659 1.99218,9.25879 1.97454,9.40472 2.03943,9.48785 2.05707,9.51058 2.22065,9.63677 2.40307,9.76805 l 0.33133,0.23925 0.00239,0.0819 c 0.0015,0.0452 0.0015,0.0969 0,0.1146 -0.00209,0.0236 -0.08283,0.0933 -0.31159,0.2691 -0.16956,0.1307 -0.32417,0.253 -0.34331,0.2721 -0.0245,0.0297 -0.04216,0.0644 -0.05173,0.1017 -0.01495,0.0574 -0.01375,0.0754 0.00718,0.1241 0.01346,0.0314 0.04366,0.0718 0.06668,0.0903 0.02333,0.0182 0.20544,0.1071 0.40461,0.1974 0.26883,0.122 0.36483,0.1722 0.372,0.1949 0.00539,0.0168 0.01735,0.067 0.02632,0.1113 l 0.01645,0.0807 -0.26824,0.308 c -0.14773,0.1693 -0.27811,0.3293 -0.29037,0.3556 -0.04426,0.0957 0.00598,0.2339 0.10048,0.2754 0.02452,0.0111 0.21471,0.0598 0.42254,0.1083 0.20813,0.0484 0.38636,0.0945 0.39593,0.1025 0.00987,0.0081 0.03589,0.0566 0.05772,0.1074 l 0.03947,0.0924 -0.21172,0.3666 c -0.20036,0.3472 -0.21112,0.3702 -0.20843,0.4399 0.00209,0.0538 0.01196,0.0867 0.03588,0.1205 0.05802,0.082 0.11513,0.0936 0.51435,0.1062 0.19946,0.006 0.38427,0.0122 0.41058,0.0137 0.04187,0.0024 0.05563,0.0144 0.10885,0.0957 L 4.09115,14.23 3.96077,14.6155 c -0.07177,0.2117 -0.13158,0.407 -0.13278,0.4336 -0.00299,0.0652 0.01556,0.1092 0.06609,0.157 0.08673,0.0816 0.09271,0.0816 0.51226,0.015 0.20724,-0.0329 0.39593,-0.0655 0.41925,-0.0718 0.03768,-0.0102 0.05054,-0.003 0.12261,0.0688 l 0.08074,0.0801 -0.05144,0.3971 c -0.0284,0.2183 -0.04784,0.4226 -0.04425,0.454 0.01345,0.1106 0.11991,0.1953 0.23086,0.1833 0.0314,-0.003 0.22607,-0.0691 0.43241,-0.1465 l 0.3753,-0.1403 0.08732,0.0541 c 0.04784,0.0299 0.09031,0.0604 0.09419,0.0679 0.00389,0.0075 0.01645,0.1654 0.02811,0.3511 0.0305,0.4919 0.0323,0.5036 0.07716,0.5559 0.02093,0.0245 0.0619,0.0568 0.0912,0.0724 0.08942,0.0466 0.13966,0.0263 0.52811,-0.2153 l 0.34778,-0.2156 0.10527,0.0388 c 0.05801,0.021 0.10615,0.0419 0.10615,0.0461 0.00748,0.0643 0.21382,0.785 0.23595,0.8232 0.02189,0.0345 0.05227,0.0627 0.08821,0.082 0.04875,0.0248 0.07028,0.0269 0.13428,0.0143 0.07296,-0.0149 0.08821,-0.0269 0.38456,-0.3047 L 8.58902,17.1268 8.688,17.1445 c 0.05443,0.0096 0.10736,0.0236 0.11753,0.0314 0.01016,0.0078 0.09569,0.1707 0.19019,0.3621 0.09449,0.1914 0.1854,0.3658 0.20125,0.3873 0.06489,0.0861 0.21351,0.1005 0.29724,0.029 0.02453,-0.0209 0.14923,-0.1833 0.27722,-0.3607 L 10.0038,17.2707 10.095,17.265 c 0.0499,-0.003 0.1026,-0.0042 0.1166,-0.0018 0.0141,0.0024 0.134,0.1459 0.2665,0.3191 0.1327,0.1731 0.2529,0.3253 0.267,0.3388 0.026,0.0195 0.0551,0.0343 0.0861,0.044 0.0754,0.0248 0.1032,0.0215 0.1729,-0.0204 0.0661,-0.0395 0.0765,-0.0586 0.2721,-0.4904 0.0801,-0.1779 0.1567,-0.3278 0.1699,-0.3331 0.0131,-0.0054 0.0642,-0.0168 0.1139,-0.0249 l 0.09,-0.0149 0.3002,0.2611 c 0.1648,0.1438 0.323,0.2736 0.3517,0.2885 0.0978,0.0506 0.2392,0.0027 0.2826,-0.096 0.0111,-0.0248 0.0598,-0.215 0.1083,-0.4228 0.0484,-0.2078 0.0948,-0.3861 0.1028,-0.3959 0.0081,-0.0099 0.0562,-0.0359 0.1071,-0.0575 l 0.0927,-0.0397 0.3663,0.2114 c 0.3472,0.2004 0.3702,0.2114 0.4399,0.2087 0.043,0.0011 0.0852,-0.0114 0.1205,-0.0359 0.0822,-0.0583 0.0942,-0.1151 0.1062,-0.5143 0.0059,-0.1992 0.0122,-0.3843 0.0137,-0.4106 0.0024,-0.0419 0.0147,-0.0553 0.0957,-0.1088 l 0.0927,-0.0607 0.387,0.1312 c 0.433,0.1469 0.4862,0.1555 0.5628,0.0897 0.0251,-0.0218 0.0577,-0.0628 0.0726,-0.0915 0.0317,-0.061 0.0305,-0.0729 -0.0514,-0.5592 -0.0311,-0.183 -0.0547,-0.3397 -0.0526,-0.3478 0.0021,-0.008 0.0365,-0.0478 0.0762,-0.0876 l 0.0727,-0.0723 0.3977,0.0511 c 0.2183,0.0281 0.4229,0.0481 0.4543,0.0443 0.0542,-0.0079 0.1034,-0.0361 0.1374,-0.0791 0.034,-0.0429 0.0503,-0.0972 0.0456,-0.1518 -0.003,-0.0314 -0.0691,-0.2261 -0.1466,-0.4324 L 16.0459,14.0282 16.1,13.9409 c 0.0299,-0.0479 0.0604,-0.0903 0.0679,-0.0942 0.0075,-0.0039 0.1654,-0.0165 0.3511,-0.0281 0.4919,-0.0308 0.5036,-0.0323 0.5559,-0.0769 0.0245,-0.0209 0.0568,-0.0622 0.0724,-0.0915 0.0469,-0.0897 0.0263,-0.1394 -0.2153,-0.5275 l -0.216,-0.3475 0.0383,-0.1038 c 0.0335,-0.0912 0.044,-0.1058 0.0844,-0.1178 0.0254,-0.0075 0.2036,-0.0556 0.3965,-0.107 0.3857,-0.1029 0.439,-0.1274 0.4766,-0.2201 0.0158,-0.04 0.0185,-0.084 0.0075,-0.1256 -0.0131,-0.0685 -0.0287,-0.0882 -0.3032,-0.381 l -0.2892,-0.3089 0.0174,-0.0987 c 0.0098,-0.0547 0.0239,-0.1077 0.0317,-0.1175 0.0077,-0.0099 0.1704,-0.0951 0.3612,-0.1896 0.1911,-0.0942 0.3651,-0.1851 0.3873,-0.2016 0.0867,-0.0655 0.1016,-0.2138 0.0299,-0.2978 -0.021,-0.0245 -0.1833,-0.1495 -0.361,-0.2772 L 17.5773,10.2166 17.4128,9.65651 C 17.4636,9.61495 17.5166,9.57218 17.5821,9.52194 17.7552,9.38947 17.9095,9.26656 17.9254,9.24862 17.9463,9.21924 17.9616,9.18617 17.9702,9.15113 17.9846,9.09551 17.9834,9.07727 17.9624,9.02853 17.9467,8.99431 17.924,8.96375 17.8958,8.93882 17.8724,8.92027 17.6909,8.83176 17.4921,8.74145 17.2932,8.65144 17.1263,8.56681 17.1209,8.55365 17.1101,8.51637 17.1018,8.47841 17.0961,8.44002 L 17.0812,8.3503 17.3425,8.05037 C 17.4861,7.8853 17.6159,7.7268 17.6308,7.6981 17.6816,7.60001 17.6335,7.45886 17.5339,7.4149 17.5085,7.40384 17.3186,7.3551 17.1111,7.30665 16.9035,7.25821 16.7259,7.21215 16.716,7.20438 16.7071,7.1969 16.6849,7.15534 16.6646,7.10988 L 16.6287,6.98817 16.8306,6.6383 C 17.0309,6.29081 17.0417,6.26808 17.039,6.19811 17.0369,6.14488 17.027,6.11139 17.0031,6.07759 16.9454,5.99596 16.888,5.98399 16.4888,5.97173 16.2896,5.96545 16.1048,5.95917 16.0785,5.95768 16.0366,5.95529 16.0229,5.94333 15.9693,5.86199 L 15.9086,5.76958 16.0402,5.38232 C 16.1867,4.94961 16.1957,4.89608 16.1296,4.81983 16.1032,4.7909 16.0723,4.76638 16.0381,4.74716 15.9771,4.71547 15.9655,4.71666 15.4792,4.7986 15.2959,4.8294 15.1392,4.85332 15.1311,4.85123 15.1231,4.84914 15.0836,4.81475 15.0438,4.77467 L 14.9711,4.70231 15.0226,4.30458 C 15.0507,4.08628 15.0704,3.88174 15.0665,3.85034 15.0588,3.79606 15.0305,3.74681 14.9876,3.71272 14.9447,3.67862 14.8903,3.66227 14.8357,3.66703 14.8043,3.67062 14.6096,3.73641 14.4033,3.81356 L 14.028,3.95411 13.9406,3.89998 C 13.8928,3.87008 13.8506,3.83957 13.8468,3.8321 13.8429,3.82462 13.83,3.66643 13.8186,3.48103 13.7878,2.9891 13.7863,2.97714 13.7415,2.92481 13.715,2.896 13.6841,2.87157 13.65,2.85244 13.5606,2.80579 13.5103,2.82642 13.1222,3.06775 L 12.7753,3.28396 12.6694,3.24508 C 12.6111,3.22355 12.5627,3.20322 12.5627,3.19963 12.5552,3.13444 12.3489,2.41315 12.327,2.37547 12.3051,2.3411 12.2747,2.3129 12.2388,2.29354 12.1901,2.26872 12.1685,2.26662 12.1045,2.27918 12.0316,2.29413 12.016,2.3061 11.7197,2.58361 L 11.4108,2.87307 11.3121,2.85543 C 11.2574,2.84586 11.2044,2.83151 11.1943,2.82403 11.1841,2.81626 11.0986,2.65328 11.0044,2.46189 10.9099,2.27051 10.819,2.09617 10.8028,2.07464 10.7624,2.02081 10.6892,1.99509 10.6192,2.00077 Z m -0.2084,2.11512 0.0688,0.00209 c 0.2308,0.00808 0.7087,0.09121 1.0595,0.18481 0.4369,0.11663 0.8585,0.28528 1.2562,0.4994 L 8.20685,9.61614 14.0752,8.51537 12.2349,10.7184 15.8862,10.3945 c -0.049,0.6956 -0.1986,1.3164 -0.4647,1.9357 -0.169,0.3936 -0.4166,0.8311 -0.6382,1.1268 l -0.0628,0.0838 -0.5541,-0.0249 c -0.3842,-0.0167 -0.5786,-0.0194 -0.6324,-0.0083 -0.1546,0.0308 -0.2865,0.1495 -0.3344,0.2993 -0.0179,0.0568 -0.0302,0.2162 -0.0457,0.6002 -0.0114,0.2873 -0.0222,0.54 -0.0239,0.5613 -0.0024,0.0314 -0.0231,0.0502 -0.1137,0.1052 -0.468,0.2826 -1.0176,0.5063 -1.639,0.6669 -0.1902,0.0487 -1.0078,0.1564 -1.2249,0.1609 C 9.52292,15.9145 8.83274,15.8191 8.26246,15.64 8.11893,15.5952 8.09381,15.5823 8.08364,15.5503 8.07706,15.53 8.00888,15.286 7.93173,15.0087 7.82946,14.6403 7.78071,14.4854 7.75021,14.4346 7.7091,14.3674 7.6511,14.3122 7.582,14.2744 7.5129,14.2366 7.43511,14.2176 7.35637,14.2193 7.30135,14.2211 7.11295,14.2677 6.74274,14.3718 L 6.20806,14.5213 6.12821,14.4543 C 5.84532,14.2169 5.50442,13.8473 5.25053,13.5025 4.78313,12.8682 4.47034,12.1972 4.25951,11.3769 4.17817,11.0599 4.08248,10.2136 4.09863,9.95376 4.10132,9.9083 4.11687,9.89634 4.57201,9.59551 5.07769,9.26148 5.12433,9.22171 5.17427,9.08116 5.1961,9.01985 5.1982,8.98397 5.18743,8.88469 L 5.17368,8.76328 4.85011,8.27584 4.52655,7.7887 4.55885,7.70976 C 4.642,7.51834 4.7337,7.33075 4.83367,7.14756 5.51989,5.90525 6.63048,4.95156 7.96223,4.46098 8.05493,4.42689 8.16049,4.39071 8.19608,4.38114 L 8.26157,4.36349 8.71013,4.71786 C 9.22239,5.12246 9.25588,5.1413 9.4377,5.12036 9.61921,5.09943 9.64792,5.07342 10.0549,4.56265 Z"
       fill="#000000"
       id="path4" />
  </g>
  <defs
     id="defs11">
    <linearGradient
       id="paint0_linear_0_1"
       x1="10"
       y1="0"
       x2="10"
       y2="10"
       gradientUnits="userSpaceOnUse">
      <stop
         stop-color="white"
         id="stop6" />
      <stop
         offset="1"
         stop-color="#E5E5E5"
         id="stop8" />
    </linearGradient>
  </defs>
</svg>
